<?xml version="1.0" encoding="utf-8"?>
<!-- Generator: Adobe Illustrator 26.2.1, SVG Export Plug-In . SVG Version: 6.00 Build 0)  -->
<svg version="1.1" id="圖層_1" xmlns="http://www.w3.org/2000/svg" xmlns:xlink="http://www.w3.org/1999/xlink" x="0px" y="0px"
	 viewBox="0 0 32 32" style="enable-background:new 0 0 32 32;" xml:space="preserve">
<g id="Map_pin_00000083767398493906806780000001619603684712574612_">
	<path d="M16,3C10.2,3,5.6,7.7,5.6,13.4c0,5,5.4,10.9,9.9,15.1L16,29l0.5-0.5c5-4.8,9.9-9.9,9.9-15C26.4,7.7,21.8,3,16,3z M16,26.8
		c-5.7-5.3-8.8-10-8.8-13.4c0-4.9,4-8.8,8.8-8.8c4.9,0,8.8,4,8.8,8.8C24.8,17.7,20.5,22.4,16,26.8z"/>
	<path d="M16,9.4c-2.2,0-4,1.8-4,4s1.8,4,4,4s4-1.8,4-4S18.2,9.4,16,9.4z M16,15.9c-1.3,0-2.4-1.1-2.4-2.4s1.1-2.4,2.4-2.4
		s2.4,1.1,2.4,2.4S17.3,15.9,16,15.9z"/>
</g>
</svg>
