<?xml version="1.0" encoding="utf-8"?>
<!-- Generator: Adobe Illustrator 26.2.1, SVG Export Plug-In . SVG Version: 6.00 Build 0)  -->
<svg version="1.1" id="圖層_1" xmlns="http://www.w3.org/2000/svg" xmlns:xlink="http://www.w3.org/1999/xlink" x="0px" y="0px"
	 viewBox="0 0 48 48" style="enable-background:new 0 0 48 48;" xml:space="preserve">
<style type="text/css">
	.st0{fill:url(#SVGID_1_);}
	.st1{fill:url(#SVGID_00000145044998750359022690000002325415631030513546_);}
	.st2{fill:url(#SVGID_00000084512496218136139290000011931630024969040275_);}
	.st3{fill:url(#SVGID_00000108989941036542997640000005800763991687435945_);}
</style>
<g>
	<g>
		<g>
			<linearGradient id="SVGID_1_" gradientUnits="userSpaceOnUse" x1="6.3346" y1="30.9097" x2="47.9995" y2="30.9097">
				<stop  offset="0" style="stop-color:#1D8FFB"/>
				<stop  offset="1" style="stop-color:#050E29"/>
			</linearGradient>
			<path class="st0" d="M12.1,38.1l17.8,1c0.4,0,0.9-0.1,1.2-0.4l16.1-12.2c0.6-0.4,0.9-1.1,0.8-1.8c0-0.7-0.4-1.3-1.1-1.7
				c-0.7-0.4-1.5-0.4-2.1,0c0,0-0.1,0-0.1,0l-14.7,7.4c-0.1,0.8-0.5,1.5-1.2,2c-0.7,0.5-1.5,0.7-2.3,0.6l-8.6-1.4
				c-0.4-0.1-0.6-0.4-0.6-0.8c0.1-0.4,0.4-0.6,0.8-0.6l8.6,1.4c0.4,0.1,0.9,0,1.2-0.3c0.4-0.3,0.6-0.7,0.6-1.1c0-0.3,0-0.7-0.2-0.9
				c0,0,0,0,0-0.1c-0.2-0.3-0.4-0.5-0.7-0.6L17.1,24c-1.7-0.7-3.6-0.6-5.1,0.4l-5.7,3.7L12.1,38.1z"/>
		</g>
		<g>
			
				<linearGradient id="SVGID_00000119081448347017190120000016628322403777115782_" gradientUnits="userSpaceOnUse" x1="4.724409e-04" y1="35.5818" x2="10.7218" y2="35.5818">
				<stop  offset="0" style="stop-color:#1D8FFB"/>
				<stop  offset="1" style="stop-color:#050E29"/>
			</linearGradient>
			<path style="fill:url(#SVGID_00000119081448347017190120000016628322403777115782_);" d="M7.3,42.8l2.8-1.7
				c0.6-0.3,0.8-1.1,0.5-1.7L4.5,29c-0.3-0.6-1.1-0.8-1.7-0.5L0,30.2L7.3,42.8z"/>
		</g>
	</g>
	<g>
		
			<linearGradient id="SVGID_00000007419179832137356970000002295133481250054050_" gradientUnits="userSpaceOnUse" x1="19.1727" y1="15.309" x2="39.1088" y2="15.309">
			<stop  offset="0" style="stop-color:#1D8FFB"/>
			<stop  offset="1" style="stop-color:#050E29"/>
		</linearGradient>
		<path style="fill:url(#SVGID_00000007419179832137356970000002295133481250054050_);" d="M39.1,11.7L39.1,11.7c0-0.1,0-0.1,0-0.2
			c0-2.9-2.4-5.3-5.3-5.3c-2,0-3.8,1.1-4.7,2.8c-0.9-1.6-2.6-2.8-4.7-2.8c-2.9,0-5.3,2.4-5.3,5.3c0,0.1,0,0.1,0,0.2h0
			c0,4.6,4,9,7.9,11.5l2,1.3l2-1.3c3.9-2.5,7.9-6.7,7.9-11.3l0,0C39.1,11.8,39.1,11.7,39.1,11.7L39.1,11.7z"/>
		
			<linearGradient id="SVGID_00000071545972355043870010000018184513443793334403_" gradientUnits="userSpaceOnUse" x1="18.159" y1="15.3091" x2="40.1226" y2="15.3091">
			<stop  offset="0" style="stop-color:#1D8FFB"/>
			<stop  offset="1" style="stop-color:#050E29"/>
		</linearGradient>
		<path style="fill:url(#SVGID_00000071545972355043870010000018184513443793334403_);" d="M29.1,25.4c-0.2,0-0.4-0.1-0.5-0.2
			l-2-1.3c-4.1-2.6-8.4-7.2-8.4-12.3c0-0.1,0-0.1,0-0.2c0-3.5,2.8-6.3,6.3-6.3c1.8,0,3.5,0.8,4.7,2c1.2-1.3,2.9-2,4.7-2
			c3.5,0,6.3,2.8,6.3,6.3c0,0.1,0,0.1,0,0.2c0,0,0,0,0,0l0,0.1c0,2.4-0.9,4.7-2.7,7.1c-1.8,2.4-4.1,4.1-5.7,5.1l-2,1.3
			C29.5,25.4,29.3,25.4,29.1,25.4z M24.5,7.2c-2.4,0-4.3,1.9-4.3,4.3c0,0,0,0.1,0,0.1c0,0,0,0,0,0c0,1.9,0.8,3.9,2.3,5.9
			c1.3,1.7,3.1,3.4,5.2,4.7l1.5,1l1.5-1c5.5-3.5,7.5-7.7,7.5-10.5c0,0,0,0,0,0l0-0.1c0,0,0,0,0,0c0,0,0-0.1,0-0.1
			c0-2.4-1.9-4.3-4.3-4.3c-1.6,0-3,0.9-3.8,2.2c-0.2,0.3-0.5,0.5-0.9,0.5l0,0c-0.4,0-0.7-0.2-0.9-0.5C27.5,8.1,26.1,7.2,24.5,7.2z"
			/>
	</g>
</g>
</svg>
