<?xml version="1.0" encoding="utf-8"?>
<!-- Generator: Adobe Illustrator 26.2.1, SVG Export Plug-In . SVG Version: 6.00 Build 0)  -->
<svg version="1.1" id="圖層_1" xmlns="http://www.w3.org/2000/svg" xmlns:xlink="http://www.w3.org/1999/xlink" x="0px" y="0px"
	 viewBox="0 0 300 170" enable-background="new 0 0 300 170" xml:space="preserve">
<g>
	<g>
		<polygon fill="#A9987F" points="228,3.6 221.8,6.4 225.4,124.8 		"/>
		<polygon fill="#A9987F" points="78.2,6.4 72,3.6 74.6,124.8 		"/>
		<path fill="#A9987F" d="M234.2,128.7l-8.1-2.9c-3.5-1.2-7.1-2.3-10.7-3.3L218,8.2l-6.1,2.8l3.5,111.6c-0.1,0-0.2-0.1-0.3-0.1
			l-4-1.1c-1.8-0.5-3.6-0.9-5.5-1.3L208,12.7l-6.2,2.8l3.4,104.4c-2.5-0.6-4.9-1.1-7.4-1.6l-2.2-3.7l2.3-97.2l-6.1,2.8l3.1,93.4
			l-0.2-0.3l0.1,4.6c-1.4-0.3-2.9-0.5-4.3-0.8l0.2-10.9l-4.6-8l1.9-76.1l-6,2.8l2.4,70.4l-0.1-0.2l0.2,21.1
			c-1.6-0.2-3.2-0.5-4.7-0.7l0.4-27.7l-3.6-6.2l1.4-55.1l-6.1,2.8l1.8,49.9l0.3,35.5c-1.7-0.2-3.4-0.3-5.1-0.4l0.5-44.9l-2.5-4.3
			L168,31l-6.1,2.8l1.3,33.3l0.4,46.9c-1.7-0.1-3.5-0.2-5.2-0.3l0.7-62.5l-1.4-2.4l0.4-13.2l-6.2,2.8l0.7,17.5l0.5,57.7
			c-1,0-2,0-3.1,0c-1,0-2.1,0-3.1,0l0.5-57.7l0.7-17.5l-6.2-2.8l0.4,13.2l-1.4,2.4l0.7,62.5c-1.8,0.1-3.5,0.2-5.2,0.3l0.4-46.9
			l1.3-33.3L132,31l0.9,34.1l-2.5,4.3l0.5,44.9c-1.7,0.1-3.4,0.3-5.1,0.5l0.3-35.6l1.8-49.9l-6.1-2.8l1.4,55.1l-3.6,6.2l0.4,27.7
			c-1.6,0.2-3.2,0.4-4.7,0.6l0.2-21.2l-0.1,0.2l2.4-70.4l-6-2.8l1.9,76.1l-4.6,8l0.2,11c-1.4,0.2-2.9,0.5-4.3,0.7l0.1-4.6l-0.2,0.3
			l3.1-93.4l-6.1-2.8l2.3,97.2l-2.2,3.8c-2.5,0.5-4.9,1-7.4,1.6l3.4-104.4L92,12.7L94.5,120c-0.2,0-0.3,0.1-0.5,0.1l-4,1
			c-1.8,0.5-3.5,1-5.2,1.5L88.2,11L82,8.2l2.5,114.4c-3.6,1-7.2,2.1-10.7,3.3l-8.1,2.9c-24,9-46.2,21.8-65.8,37.7
			c21.7-14.5,45.6-26,71.1-33.8c0.9-0.3,1.8-0.6,2.8-0.8c5.3-1.6,10.6-3,16.1-4.2c1.3-0.3,2.7-0.6,4-0.9c1.6-0.3,3.1-0.6,4.7-0.9
			c2-0.4,3.9-0.8,5.9-1.1c0,0,0,0,0,0c0.1,0,0.3-0.1,0.4-0.1c1.5-0.3,3-0.4,4.5-0.7c1.7-0.3,3.3-0.5,5-0.7c0,0,0.1,0,0.1,0
			c0.3,0,0.5-0.1,0.8-0.1c1.6-0.2,3.3-0.4,4.9-0.6c1.4-0.2,2.8-0.3,4.2-0.4c0.1,0,0.1,0,0.2,0c0.4,0,0.8-0.1,1.2-0.1
			c1.7-0.2,3.5-0.3,5.2-0.4c1.1-0.1,2.3-0.1,3.4-0.2c0.1,0,0.2,0,0.2,0c0.5,0,1.1-0.1,1.6-0.1c1.8-0.1,3.6-0.2,5.4-0.3
			c0,0,0.1,0,0.1,0c0.9,0,1.7,0,2.6-0.1c0.1,0,0.2,0,0.3,0c0.4,0,0.8,0,1.2,0c0.3,0,0.6,0,0.9,0c1,0,2.1,0,3.1,0c1,0,2.1,0,3.1,0
			c0.7,0,1.4,0,2.2,0c0.1,0,0.2,0,0.3,0c0.9,0,1.8,0,2.7,0c1.8,0.1,3.6,0.1,5.4,0.2c0.5,0,1.1,0.1,1.6,0.1c0.1,0,0.2,0,0.2,0
			c1.1,0.1,2.3,0.1,3.4,0.2c1.7,0.1,3.5,0.2,5.2,0.4c0.4,0,0.8,0.1,1.2,0.1c0.1,0,0.1,0,0.2,0c1.4,0.1,2.8,0.3,4.2,0.4
			c1.6,0.2,3.3,0.4,4.9,0.6c0.3,0,0.5,0.1,0.8,0.1c0,0,0.1,0,0.1,0c1.7,0.2,3.3,0.4,5,0.7c1.5,0.2,3,0.5,4.5,0.7
			c0.1,0,0.3,0.1,0.4,0.1c0,0,0,0,0,0c2,0.3,3.9,0.7,5.9,1.1c3.2,0.6,6.5,1.3,9.7,2c1.4,0.3,2.7,0.6,4,1c3.7,0.9,7.4,1.9,11.1,3
			c0.9,0.3,1.8,0.6,2.8,0.8c25.5,7.8,49.4,19.3,71.1,33.8C280.4,150.6,258.2,137.8,234.2,128.7z"/>
	</g>
</g>
</svg>
